<svg xmlns="http://www.w3.org/2000/svg" fill="#000" viewBox="0 0 109.84 50" class="header_logo__q5OoG"><path d="M100.94 24.5c-4.49 8.55-17.69 4.1-17.33-5.01-.34-9.27 13.09-13.55 17.48-4.79h8.75c-4.77-14.76-26.6-16.37-32.1-1.24C76.9-.17 60.77 2.92 51.51 2.67v33.88h7.9l.06-12.04h4.14l23.4 25.5V39.5L72.5 23.7a8.5 8.5 0 0 0 4.3-4.14c-.86 15.31 20.23 22.71 29.47 10.76l3.58 3.9V19.5H96.36l4.59 5.01zm-36.03-6.72c-.18.06-5.11.03-5.47.04V8.88c.82.02 4.99-.07 5.7.13 5.56.5 5.3 8.56-.23 8.77M26.61 33.65 39.6 19.5v17.04h8.12V0L26.61 23zM0 12.94l14.19 15.45v18.79l1.72-1.88V18.56l-5.16-5.62z"></path><path d="m22.01 2.67 4.17 4.7-5.11 5.58v26.73l1.72-1.88V21.48L39.75 2.67zM17.63 43.43l1.72-1.88V14.83l-1.72 1.87z"></path></svg>
